<svg xmlns="http://www.w3.org/2000/svg" xmlns:xlink="http://www.w3.org/1999/xlink" width="1024" height="1024" viewBox="0 0 1024 1024"><path fill="#020104" d="M719.639 463.282C719.716 456.003 720.184 439.779 721.22 433.389C723.445 419.673 763.957 425.275 772.342 427.764C774.348 430.471 776.077 432.743 777.033 435.986C780.69 442.199 784.193 448.701 787.685 455.026C788.846 457.157 793.535 465.548 793.796 467.345C799.039 476.909 804.523 486.391 809.38 496.156C815.405 508.269 821.735 520.876 828.641 532.527C833.194 524.442 837.161 516.428 841.59 508.411L869.642 457.888C873.099 451.562 876.467 445.178 879.808 438.79C881.252 436.028 882.495 432.919 884.215 430.339C885.726 428.071 888.1 426.616 890.704 425.939C898.583 423.89 928.171 424.017 934.691 428.087C937.177 429.639 938.205 431.994 938.813 434.786C940.652 443.231 941.357 477.543 940.381 485.863C940.232 487.133 939.656 487.949 939.047 489.018C936.099 494.19 940.217 582.39 940.487 596.254C940.618 603.015 942.041 615.452 939.862 621.449C938.971 623.901 936.555 625.124 934.191 625.793C925.432 628.271 907.253 627.898 899.244 623.317C897.115 622.099 895.924 620.655 894.587 618.631C892.587 613.602 894.654 595.915 895.295 589.756C897.056 567.56 893.901 543.852 894.499 521.488C894.817 509.582 895.338 497.916 896.004 486.034C884.247 501.65 843.88 586.602 835.8 591.65C832.036 594.002 826.818 593.751 822.722 592.532C819.84 591.675 817.355 590.261 815.403 587.952C808.323 579.581 801.731 565.048 796.38 555.048L759.662 485.613C759.219 500.497 759.891 515.859 759.881 530.777C759.777 540.779 759.455 550.792 759.316 560.793C759.276 563.645 761.215 564.217 761.278 566.72C761.471 574.317 761.464 581.978 761.389 589.58C761.304 598.234 761.55 606.986 760.924 615.611C760.775 617.649 760.213 620.454 758.818 622.011C755.127 626.13 746.017 626.732 740.677 627.008C734.991 627.303 723.397 626.238 719.004 622.256C717.391 620.793 716.948 618.183 716.876 616.081C716.459 603.933 717.707 591.702 717.612 579.507C717.307 540.76 718.812 502.043 719.639 463.282Z" data-index="1"></path><path fill="#9F74B6" d="M719.639 463.282C719.716 456.003 720.184 439.779 721.22 433.389C723.445 419.673 763.957 425.275 772.342 427.764C774.348 430.471 776.077 432.743 777.033 435.986C780.69 442.199 784.193 448.701 787.685 455.026C788.846 457.157 793.535 465.548 793.796 467.345L792.844 467.096C791.728 464.686 789.642 460.84 788.988 458.594L788.487 458.686C788.005 460.756 787.577 463.815 786.287 465.116C786.207 465.347 786.128 465.578 786.048 465.809L786.656 465.802C788.274 465.799 789 465.609 790.265 466.569C791.567 468.663 791.236 467.564 791.358 469.979C794.059 476.366 800.626 486.926 804.34 494.488L804.798 495.135C808.877 501.022 823.849 534.134 827.783 535.736C828.609 535.113 828.29 535.456 828.795 534.762L829.216 535.897L829.975 536.107C834.766 531.233 837.919 520.564 842.612 514.431C845.186 516.136 849.219 511.262 852.055 510.997C853.025 510.906 853.852 510.22 854.558 509.619C858.825 512.383 858.423 518.513 860.95 519.543C865.118 521.849 866.419 521.723 870.965 522.869L871.012 523.547C868.462 527.306 864.643 535.005 862.313 539.229L843.91 572.451C840.991 577.705 836.971 585.779 833.165 590.088C829.016 590.17 820.166 589.672 817.534 585.962C813.572 580.378 810.158 573.469 806.839 567.372C791.461 539.12 776.931 510.311 761.054 482.359C760.277 480.991 759.441 480.725 758.061 480.517L757.124 481.252C755.896 484.59 756.749 489.817 756.388 493.183C755.314 503.197 757.753 558.584 754.573 561.683C752.414 559.069 749.268 551.52 746.766 547.691C741.121 539.053 731.076 533.87 721.208 531.755C721.519 522.822 722.065 465.409 723.319 463.749L725.005 463.555C726.799 462.651 726.04 463.307 727.065 461.219L722.985 459.74C719.807 460.323 720.219 459.879 719.639 463.282Z" data-index="2"></path><path fill="#17A8DD" d="M719.639 463.282C719.716 456.003 720.184 439.779 721.22 433.389C723.445 419.673 763.957 425.275 772.342 427.764C774.348 430.471 776.077 432.743 777.033 435.986C780.69 442.199 784.193 448.701 787.685 455.026C786.768 456.73 786.049 459.067 786.414 460.986C786.868 462.048 786.772 461.627 786.723 462.795C785.185 465.187 779.128 468.604 776.45 468.99C759.495 471.44 741.901 469.894 727.065 461.219L722.985 459.74C719.807 460.323 720.219 459.879 719.639 463.282Z" data-index="3"></path><defs><linearGradient id="gradient_0" gradientUnits="userSpaceOnUse" x1="757.71527" y1="462.9129" x2="748.5813" y2="426.89957"><stop offset="0" stop-color="#BDF5FC"></stop><stop offset="1" stop-color="#EBFFFF"></stop></linearGradient></defs><path fill="url(#gradient_0)" d="M719.639 463.282C719.716 456.003 720.184 439.779 721.22 433.389C723.445 419.673 763.957 425.275 772.342 427.764C774.348 430.471 776.077 432.743 777.033 435.986C780.69 442.199 784.193 448.701 787.685 455.026C786.768 456.73 786.049 459.067 786.414 460.986L784.7 458.406C783.763 458.189 783.584 458.158 783.031 457.225C778.106 448.92 773.295 440.729 767.809 432.758C758.779 432.135 746.606 433.909 737.17 433.721C727.54 433.53 731.71 442.673 726.889 445.325L725.51 444.901C724.073 443.311 724.494 444.012 724.301 441.489C723.388 447.452 723.095 453.708 722.985 459.74C719.807 460.323 720.219 459.879 719.639 463.282Z" data-index="4"></path><path fill="#052650" d="M719.639 463.282C719.716 456.003 720.184 439.779 721.22 433.389C723.445 419.673 763.957 425.275 772.342 427.764C774.348 430.471 776.077 432.743 777.033 435.986C775.181 435.632 774.689 433.282 773.903 431.605C771.981 430.416 772.558 430.792 769.878 430.888C759.466 429.316 748.823 428.103 738.261 428.528C733.826 428.706 725.393 429.181 724.74 435.031C724.505 437.141 724.496 439.35 724.301 441.489C723.388 447.452 723.095 453.708 722.985 459.74C719.807 460.323 720.219 459.879 719.639 463.282Z" data-index="5"></path><path fill="#04164D" d="M769.878 430.888C772.558 430.792 771.981 430.416 773.903 431.605C774.689 433.282 775.181 435.632 777.033 435.986C780.69 442.199 784.193 448.701 787.685 455.026C786.768 456.73 786.049 459.067 786.414 460.986L784.7 458.406C783.479 455.276 771.394 432.494 769.878 430.888Z" data-index="6"></path><path fill="#080F2F" d="M787.685 455.026C788.846 457.157 793.535 465.548 793.796 467.345L792.844 467.096C791.728 464.686 789.642 460.84 788.988 458.594L788.487 458.686C788.005 460.756 787.577 463.815 786.287 465.116C786.207 465.347 786.128 465.578 786.048 465.809L786.656 465.802C788.274 465.799 789 465.609 790.265 466.569C791.567 468.663 791.236 467.564 791.358 469.979L789.519 467.664L788.768 466.818C786.024 466.839 777.967 473.327 774.638 473.48C755.103 474.376 742.085 473.06 725.005 463.555C726.799 462.651 726.04 463.307 727.065 461.219C741.901 469.894 759.495 471.44 776.45 468.99C779.128 468.604 785.185 465.187 786.723 462.795C786.772 461.627 786.868 462.048 786.414 460.986C786.049 459.067 786.768 456.73 787.685 455.026Z" data-index="7"></path><path fill="#F5F5F4" d="M804.34 494.488C804.003 495.098 804.253 494.884 803.582 495.12C800.45 491.298 788.732 471.508 789.519 467.664L791.358 469.979C794.059 476.366 800.626 486.926 804.34 494.488Z" data-index="8"></path><path fill="#F3E2E9" d="M860.95 519.543C865.118 521.849 866.419 521.723 870.965 522.869L871.012 523.547C867.714 524.388 863.886 524.73 861.189 522.265C860.469 520.404 860.466 521.285 860.95 519.543Z" data-index="9"></path><path fill="#D86992" d="M899.151 480.135C911.942 480.111 911.662 485.896 917.945 494.778C922.74 501.556 929.287 500.314 935.104 495.337C935.331 510.061 934.326 524.936 934.738 539.921C935.052 546.266 935.257 553.463 935.824 559.726C931.775 559.735 928.269 561.256 925.935 561.245C916.398 561.2 908.833 558.599 899.486 563.065C898.689 564.447 898.905 564.11 898.499 565.729C897.974 557.427 897.941 548.221 897.725 539.836C896.952 523.892 898.095 495.864 899.151 480.135Z" data-index="10"></path><path fill="#9F74B6" d="M934.738 539.921C935.052 546.266 935.257 553.463 935.824 559.726C931.775 559.735 928.269 561.256 925.935 561.245C916.398 561.2 908.833 558.599 899.486 563.065C898.689 564.447 898.905 564.11 898.499 565.729C897.974 557.427 897.941 548.221 897.725 539.836C898.774 541.48 899.182 554.321 899.418 557.276C904.086 556.388 906.627 554.873 911.977 555.166C917.429 555.465 924.886 558.858 930.006 557.959C932.053 557.599 931.546 557.644 933.918 557.747L934.601 557.781C935.439 553.677 933.449 546.645 934.6 540.613L934.738 539.921Z" data-index="11"></path><defs><linearGradient id="gradient_1" gradientUnits="userSpaceOnUse" x1="916.52771" y1="560.14044" x2="917.11786" y2="623.06921"><stop offset="0" stop-color="#A478BC"></stop><stop offset="1" stop-color="#4796DC"></stop></linearGradient></defs><path fill="url(#gradient_1)" d="M898.499 565.729C898.905 564.11 898.689 564.447 899.486 563.065C908.833 558.599 916.398 561.2 925.935 561.245C928.269 561.256 931.775 559.735 935.824 559.726L937.28 595.283C937.522 601.907 937.777 608.896 937.541 615.588C937.281 622.934 931.471 624.171 924.803 624.103C916.407 624.018 903.444 624.008 896.699 617.798L894.587 618.631C892.587 613.602 894.654 595.915 895.295 589.756L896.373 589.363L897.966 590.254C898.544 582.215 898.459 573.817 898.499 565.729Z" data-index="12"></path><path fill="#04164D" d="M895.295 589.756L896.373 589.363L897.966 590.254C897.589 596.761 897.247 603.262 896.907 609.771C896.784 612.117 896.919 615.732 896.699 617.798L894.587 618.631C892.587 613.602 894.654 595.915 895.295 589.756Z" data-index="13"></path><path fill="#D0A6D1" d="M842.612 514.431C845.752 510.121 849.375 509.089 854.558 509.619C853.852 510.22 853.025 510.906 852.055 510.997C849.219 511.262 845.186 516.136 842.612 514.431Z" data-index="14"></path><defs><linearGradient id="gradient_2" gradientUnits="userSpaceOnUse" x1="903.02692" y1="432.7753" x2="888.47949" y2="520.87695"><stop offset="0" stop-color="#FFB500"></stop><stop offset="1" stop-color="#EB7E57"></stop></linearGradient></defs><path fill="url(#gradient_2)" d="M886.065 433.412C889.045 427.566 898.887 427.373 904.754 427.377C913.835 427.382 924.042 426.492 932.535 429.92C935.639 431.172 935.624 435.27 935.528 438.007C936.734 451.191 938.26 471.711 937.245 485.192C935.888 487.05 933.759 489.655 933.308 491.854C930.947 497.031 926.657 496.564 922.017 494.87C911.032 485.665 919.993 477.637 899 477.509C898.105 478.064 895.466 479.674 894.958 480.477C887.145 492.844 880.886 506.268 873.5 518.863C870.712 518.701 866.089 518.748 863.848 517.633L863.175 516.618C858.48 507.403 858.171 504.957 847.198 506.333C848.92 502.839 851.576 497.018 853.686 493.973C860.112 481.186 867.429 469 874.186 456.409C878.272 448.796 881.977 441.023 886.065 433.412Z" data-index="15"></path><path fill="#FAEAAE" d="M886.065 433.412C889.045 427.566 898.887 427.373 904.754 427.377C913.835 427.382 924.042 426.492 932.535 429.92C935.639 431.172 935.624 435.27 935.528 438.007C933.908 437.501 933.952 437.359 932.37 437.839C932.543 440.413 933.439 444.765 931.524 446.479C927.842 446.593 925.652 441.448 925.224 438.332C918.557 430.56 900.5 437.708 891.725 431.518C890.129 432.132 887.682 433.2 886.065 433.412Z" data-index="16"></path><path fill="#B28A3B" d="M886.065 433.412C889.045 427.566 898.887 427.373 904.754 427.377C913.835 427.382 924.042 426.492 932.535 429.92C935.639 431.172 935.624 435.27 935.528 438.007C933.908 437.501 933.952 437.359 932.37 437.839C931.683 435.176 931.26 433.518 928.455 432.307C923.014 429.958 916.83 429.859 910.924 429.79C904.562 429.716 897.878 429.539 891.725 431.518C890.129 432.132 887.682 433.2 886.065 433.412Z" data-index="17"></path><path fill="#F87B54" d="M847.198 506.333C848.92 502.839 851.576 497.018 853.686 493.973C853.357 496.632 850.247 502.341 850.616 503.258C854.398 504.385 861.448 503.208 862.839 507.033L862.444 507.831L859.752 508.081C860.144 509.532 861.985 511.416 863.048 512.525C863.428 514.146 863.279 514.981 863.175 516.618C858.48 507.403 858.171 504.957 847.198 506.333Z" data-index="18"></path><path fill="#F3A541" d="M922.017 494.87L922.219 493.742C923.685 492.001 929.94 492.275 933.308 491.854C930.947 497.031 926.657 496.564 922.017 494.87Z" data-index="19"></path><path fill="#DDDB0B" d="M720.78 535.543C748.245 537.412 744.351 561.686 757.668 567.257C757.435 583.77 758.463 600.593 757.761 617.123C757.658 619.544 756.431 620.098 754.62 621.532C746.84 624.788 727.328 625.465 720.86 619.613C719.445 616.597 719.79 606.36 719.967 602.661C721.034 580.302 720.189 557.888 720.78 535.543Z" data-index="20"></path><defs><linearGradient id="gradient_3" gradientUnits="userSpaceOnUse" x1="230.01616" y1="432.52118" x2="240.0231" y2="558.25427"><stop offset="0" stop-color="#23C96E"></stop><stop offset="1" stop-color="#6A91CE"></stop></linearGradient></defs><path fill="url(#gradient_3)" d="M212.588 431.203C214.291 428.408 215.012 427.336 218.735 426.569C225.191 425.096 255.851 424.475 256.777 433.191C257.871 443.497 253.472 457.191 253.433 468.316C253.337 495.866 254.656 523.442 254.493 550.987C254.39 568.443 246.624 587.563 235.536 600.912C212.872 627.541 178.876 635.521 145.432 629.138C140.54 627.922 123.862 622.397 120.757 618.889C112.936 619.406 109.259 618.982 102.598 613.761C76.9096 593.624 67.2172 561.205 79.0792 530.588C84.9555 515.421 97.7209 505.858 95.2518 489.707C94.263 483.238 91.1855 478.512 84.8262 476.299C82.1617 475.372 79.7657 475.085 77.5602 473.469C75.6504 470.552 76.6068 458.413 76.3387 454.191C74.2188 420.793 79.7894 425.089 109.082 426.827C113.992 427.118 117.151 429.638 119.934 433.438C120.961 441.869 120.332 457.448 120.316 466.454C120.042 492.054 119.787 517.54 118.679 543.148C116.785 586.942 167.205 612.907 199.561 581.524C215.228 566.327 212.929 544.818 212.914 524.948C216.403 523.772 221.599 523.785 223.85 522.55L223.712 521.85L221.371 520.772C218.521 520.449 216.24 520.125 213.866 518.503C211.888 515.248 212.216 439.945 212.588 431.203Z" data-index="21"></path><defs><linearGradient id="gradient_4" gradientUnits="userSpaceOnUse" x1="124.62418" y1="624.0636" x2="160.08423" y2="437.22058"><stop offset="0" stop-color="black"></stop><stop offset="1" stop-color="#090116"></stop></linearGradient></defs><path fill="url(#gradient_4)" d="M120.757 618.889C112.936 619.406 109.259 618.982 102.598 613.761C76.9096 593.624 67.2172 561.205 79.0792 530.588C84.9555 515.421 97.7209 505.858 95.2518 489.707C94.263 483.238 91.1855 478.512 84.8262 476.299C82.1617 475.372 79.7657 475.085 77.5602 473.469C75.6504 470.552 76.6068 458.413 76.3387 454.191C74.2188 420.793 79.7894 425.089 109.082 426.827C113.992 427.118 117.151 429.638 119.934 433.438C120.961 441.869 120.332 457.448 120.316 466.454C120.042 492.054 119.787 517.54 118.679 543.148C116.785 586.942 167.205 612.907 199.561 581.524C215.228 566.327 212.929 544.818 212.914 524.948C216.403 523.772 221.599 523.785 223.85 522.55L223.712 521.85L221.371 520.772C220.908 519.347 218.127 519.692 215.447 518.226C218.051 517.142 219.513 518.756 222.671 518.079C225.069 518.386 226.984 518.426 228.482 520.27C228.996 526.715 221.204 526.471 216.263 527.245L216.58 547.301C215.821 560.319 213.354 567.153 206.19 578.478L205.57 579.182C204.413 580.508 203.297 582.582 202.26 583.548C193.461 591.748 185.937 595.244 174.462 597.775C160.275 598.505 154.262 597.452 141.417 591.798C143.021 604.681 142.058 612.662 129.461 619.329C135.797 622.967 138.051 623.475 145.262 625.466L146.016 626.01C147.18 626.833 147.655 626.976 148.973 627.502L149.18 627.791L148.494 628.736C147.358 628.908 146.58 629.028 145.432 629.138C140.54 627.922 123.862 622.397 120.757 618.889Z" data-index="22"></path><path fill="#D86992" d="M79.9098 437.749C80.0754 435.374 80.4759 431.249 83.2474 430.709C88.6483 429.658 105.824 429.028 110.19 431.008C112.523 431.531 114.428 431.522 116.104 433.005C117.808 437.605 116.707 451.446 116.725 457.129C116.785 475.785 116.231 494.531 116.347 513.187C116.482 534.84 111.405 555.729 123.639 575.129C127.941 580.754 129.922 583.592 135.262 588.259C139.541 591.26 139.169 597.418 138.902 602.209C138.507 609.289 131.761 613.755 126.564 617.726C117.406 613.545 111.272 617.634 102.576 609.571C92.4173 600.151 81.7434 588.244 80.4115 573.868C76.0392 560.576 77.9043 549.236 80.8154 536.062C84.578 517.599 108.573 502.45 94.9474 480.035C91.5884 474.508 85.8706 472.74 79.858 471.502C79.3548 464.613 78.9551 444.481 79.9098 437.749Z" data-index="23"></path><path fill="#F87B54" d="M83.2061 569.864L83.7585 569.36C86.3364 575.992 84.4365 579.083 84.4762 584.95C84.4806 585.598 91.6767 597.09 92.3635 597.821L93.2469 597.798C95.1062 593.382 95.0012 586.978 100.473 584.776C105.766 582.646 114.568 587.479 119.386 589.732C124.551 592.146 130.184 594.899 134.001 599.163C134.608 599.841 134.821 599.923 135.674 600.185C136.776 601.772 137.058 602.206 137.91 603.924C138.988 583.003 133.133 596.742 123.585 581.095L123.966 580.649C123.306 578.386 122.778 577.253 123.639 575.129C127.941 580.754 129.922 583.592 135.262 588.259C139.541 591.26 139.169 597.418 138.902 602.209C138.507 609.289 131.761 613.755 126.564 617.726C117.406 613.545 111.272 617.634 102.576 609.571C92.4173 600.151 81.7434 588.244 80.4115 573.868C81.2055 575.66 81.9764 578.306 83.9656 578.757C85.3654 576.24 83.9608 572.581 83.2061 569.864Z" data-index="24"></path><path fill="#F3E2E9" d="M123.639 575.129C127.941 580.754 129.922 583.592 135.262 588.259C134.704 589.401 134.933 589.083 134.131 589.96C130.826 589.426 126.174 583.301 123.966 580.649C123.306 578.386 122.778 577.253 123.639 575.129Z" data-index="25"></path><path fill="#F5F5F4" d="M79.9098 437.749C80.0754 435.374 80.4759 431.249 83.2474 430.709C88.6483 429.658 105.824 429.028 110.19 431.008C109.576 432.413 109.684 433.005 108.02 433.396C101.796 434.856 95.0056 433.884 88.7852 434.519C86.342 434.769 83.0394 443.869 81.2385 445.827C79.4156 444.231 79.9201 440.284 79.9098 437.749Z" data-index="26"></path><path fill="#F3E2E9" d="M80.8154 536.062L83.3198 534.735L83.8661 535.007C83.8234 548.346 78.3121 554.974 83.2061 569.864C83.9608 572.581 85.3654 576.24 83.9656 578.757C81.9764 578.306 81.2055 575.66 80.4115 573.868C76.0392 560.576 77.9043 549.236 80.8154 536.062Z" data-index="27"></path><path fill="#BD68B1" d="M216.58 547.301L216.806 546.045L217.217 545.874L217.41 544.168C217.386 546.036 217.305 547.699 217.191 549.564L217.777 549.711L218.758 548.683C222.221 550.413 223.474 549.583 226.615 550.288C231.788 551.449 241.609 554.364 245.723 557.538C247.064 557.611 247.754 557.588 249.057 557.926L249.762 557.54C250.07 555.936 250.342 554.47 250.573 552.853L251.35 552.528C250.829 561.934 244.133 583.87 238.265 591.034C227.844 608.869 209.385 620.804 189.635 625.479C185.687 626.414 178.433 628.173 174.332 627.938C164.137 628.764 155.162 627.631 145.262 625.466C138.051 623.475 135.797 622.967 129.461 619.329C142.058 612.662 143.021 604.681 141.417 591.798C154.262 597.452 160.275 598.505 174.462 597.775C185.937 595.244 193.461 591.748 202.26 583.548C203.297 582.582 204.413 580.508 205.57 579.182L206.19 578.478C213.354 567.153 215.821 560.319 216.58 547.301Z" data-index="28"></path><path fill="#728BC9" d="M216.58 547.301L216.806 546.045L217.217 545.874L217.41 544.168C217.386 546.036 217.305 547.699 217.191 549.564L217.777 549.711L218.758 548.683C222.221 550.413 223.474 549.583 226.615 550.288C231.788 551.449 241.609 554.364 245.723 557.538C247.064 557.611 247.754 557.588 249.057 557.926L249.762 557.54C250.07 555.936 250.342 554.47 250.573 552.853L251.35 552.528C250.829 561.934 244.133 583.87 238.265 591.034C238.1 590.81 237.935 590.587 237.769 590.364C240.454 585.701 248.827 569.662 247.602 564.395C238.731 566.968 219.726 553.687 217.33 554.06C216.067 558.937 213.072 566.549 212.29 570.481L213.696 571.813L213.696 572.987C212.202 574.602 210.975 573.055 210.578 573.489C208.527 575.726 209.247 577.02 206.19 578.478C213.354 567.153 215.821 560.319 216.58 547.301Z" data-index="29"></path><path fill="#D86992" d="M141.417 591.798C154.262 597.452 160.275 598.505 174.462 597.775C172.385 601.004 155.456 598.036 151.966 596.948C150.274 597.685 144.427 599.747 143.787 600.448C140.768 611.838 141.139 611.817 132.412 619.425C134.995 623.681 153.441 625.821 158.531 626.71C161.803 627.281 172.487 627.12 174.332 627.938C164.137 628.764 155.162 627.631 145.262 625.466C138.051 623.475 135.797 622.967 129.461 619.329C142.058 612.662 143.021 604.681 141.417 591.798Z" data-index="30"></path><defs><linearGradient id="gradient_5" gradientUnits="userSpaceOnUse" x1="256.71423" y1="539.66522" x2="170.44536" y2="522.60223"><stop offset="0" stop-color="black"></stop><stop offset="1" stop-color="#16192C"></stop></linearGradient></defs><path fill="url(#gradient_5)" d="M212.588 431.203C214.291 428.408 215.012 427.336 218.735 426.569C225.191 425.096 255.851 424.475 256.777 433.191C257.871 443.497 253.472 457.191 253.433 468.316C253.337 495.866 254.656 523.442 254.493 550.987C254.39 568.443 246.624 587.563 235.536 600.912C212.872 627.541 178.876 635.521 145.432 629.138C146.58 629.028 147.358 628.908 148.494 628.736L149.18 627.791L148.973 627.502C147.655 626.976 147.18 626.833 146.016 626.01L145.262 625.466C155.162 627.631 164.137 628.764 174.332 627.938C178.433 628.173 185.687 626.414 189.635 625.479C209.385 620.804 227.844 608.869 238.265 591.034C244.133 583.87 250.829 561.934 251.35 552.528C251.972 541.873 251.31 531.134 251.119 520.499C250.808 503.225 250.47 485.834 250.424 468.563C250.392 456.195 254.237 446.234 253.907 433.377L247.491 431.148L247.005 432.022C244.063 432.812 225.77 432.84 223.183 431.953C220.342 438.102 220.24 448.5 217.578 451.359L216.76 451.444L216.018 450.22C216.143 472.099 215.681 494.428 216.534 516.273L222.671 518.079C219.513 518.756 218.051 517.142 215.447 518.226C218.127 519.692 220.908 519.347 221.371 520.772C218.521 520.449 216.24 520.125 213.866 518.503C211.888 515.248 212.216 439.945 212.588 431.203Z" data-index="31"></path><defs><linearGradient id="gradient_6" gradientUnits="userSpaceOnUse" x1="222.50444" y1="447.83786" x2="215.15147" y2="434.01529"><stop offset="0" stop-color="#E9FFFC"></stop><stop offset="1" stop-color="white"></stop></linearGradient></defs><path fill="url(#gradient_6)" d="M219.03 430.894C220.497 430.976 222.36 430.633 223.183 431.953C220.342 438.102 220.24 448.5 217.578 451.359L216.76 451.444L216.018 450.22C216.025 444.246 213.745 434.397 219.03 430.894Z" data-index="32"></path><path fill="#BEFBDF" d="M219.03 430.894C224.754 429.483 241.845 429.361 247.491 431.148L247.005 432.022C244.063 432.812 225.77 432.84 223.183 431.953C222.36 430.633 220.497 430.976 219.03 430.894Z" data-index="33"></path><path fill="#4E9CCA" d="M291.642 443.649C291.974 420.374 295.588 427.082 314.762 424.708C317.651 424.35 321.755 421.892 324.447 420.766C332.687 416.43 341.78 412.778 351.352 413.421C370.129 414.683 370.467 425.208 391.682 425.697C393.264 434.413 393.815 440.238 390.388 448.702C389.371 451.194 386.802 457.773 385.204 459.743C380.234 459.162 375.593 458.625 370.576 458.445C359.265 458.038 346.01 459.066 334.879 457.831C332.919 466.27 334.95 490.646 333.75 502.462C332.275 503.141 329.922 504.317 328.432 504.747C326.584 505.917 326.112 506.007 325.299 507.905C325.431 508.987 325.487 509.861 326.578 510.56C329.902 511.687 331.374 512.432 334.484 514.008C334.444 521.731 333.177 589.462 334.294 591.822C335.18 591.773 337.36 591.616 338.118 591.849L337.988 594.619L339.522 593.731C340.804 594.081 340.212 593.799 341.296 594.582C344.859 600.345 346.76 602.526 348.336 609.203C346.882 614.729 342.7 621.558 342.419 622.913L342.131 626.457C331.054 626.536 319.986 626.701 308.905 626.616C303.637 626.576 297.218 626.507 293.085 622.741C291.694 621.253 290.6 619.588 290.518 617.557C289.971 604.082 291.625 590.763 291.519 577.254L291.642 443.649Z" data-index="34"></path><path fill="#020104" d="M291.642 443.649C292.665 441.396 292.629 436.398 293.686 432.935C293.596 437.658 292.201 439.306 294.923 443.271C294.997 448.947 294.939 455.144 295.457 460.755C295.026 483.059 293.642 506.131 293.509 528.298C293.401 546.341 295.037 564.294 294.708 582.855C304.323 581.867 312.202 584.388 314.292 595.729C315.859 604.236 303.104 609.961 306.262 619.628C306.5 620.68 307.345 622.994 308.239 623.155C316.238 624.595 330.134 623.786 338.273 624.234C340.921 618.652 343.346 616.081 344.782 609.942C342.783 603.362 339.377 599.348 337.905 594.869L337.988 594.619L339.522 593.731C340.804 594.081 340.212 593.799 341.296 594.582C344.859 600.345 346.76 602.526 348.336 609.203C346.882 614.729 342.7 621.558 342.419 622.913L342.131 626.457C331.054 626.536 319.986 626.701 308.905 626.616C303.637 626.576 297.218 626.507 293.085 622.741C291.694 621.253 290.6 619.588 290.518 617.557C289.971 604.082 291.625 590.763 291.519 577.254L291.642 443.649Z" data-index="35"></path><path fill="#FAC027" d="M298.495 585.571C304.065 585.502 309.422 588.238 310.516 593.651C313.333 607.591 298.092 605.062 303.96 620.844L304.26 622.239C301.736 625.806 293.905 620.999 293.814 617.343C293.584 608.185 293.53 597.323 294.718 588.238C295.705 586.657 296.793 586.378 298.495 585.571Z" data-index="36"></path><path fill="#17A8DD" d="M291.642 443.649C291.974 420.374 295.588 427.082 314.762 424.708C317.651 424.35 321.755 421.892 324.447 420.766C332.687 416.43 341.78 412.778 351.352 413.421C370.129 414.683 370.467 425.208 391.682 425.697C393.264 434.413 393.815 440.238 390.388 448.702C389.371 451.194 386.802 457.773 385.204 459.743C380.234 459.162 375.593 458.625 370.576 458.445C359.265 458.038 346.01 459.066 334.879 457.831L335.368 457.392L334.353 455.864L335.414 455.505L335.231 455.463C334.729 454.97 333.215 455.006 332.295 454.908C334.035 454.504 339.582 454.505 341.711 454.471C344.677 453.814 347.568 453.947 350.583 453.885C356.731 453.757 362.862 454.06 368.998 454.385C370.275 454.453 370.398 453.641 371.292 453.015C374.61 452.96 380.945 452.984 383.944 453C386.019 448.367 391.046 436.484 388.548 431.687C386.861 431.708 380.902 432.14 379.789 431.662C375.43 429.789 365.636 423.814 360.457 426.916L360.391 427.792C363.318 429.323 366.307 425.771 369.464 427.887C367.359 430.107 360.609 430.792 358.624 427.166C356.684 423.622 346.858 424.425 343.473 424.922C339.265 425.54 334.667 428.788 330.541 429.952C322.24 430.414 316.155 431.923 308.329 434.691C305.419 435.72 305.522 437.665 302.807 437.873C301.557 436.805 301.98 437.474 301.678 435.694L302.269 434.935L302.871 435.204L302.615 436.322L303.499 436.839L304.214 436.396C302.694 434.107 298.906 434.475 296.255 434.255C293.626 441.092 297.935 454.35 295.457 460.755C294.939 455.144 294.997 448.947 294.923 443.271C292.201 439.306 293.596 437.658 293.686 432.935C292.629 436.398 292.665 441.396 291.642 443.649Z" data-index="37"></path><path fill="#06040F" d="M291.642 443.649C291.974 420.374 295.588 427.082 314.762 424.708C317.651 424.35 321.755 421.892 324.447 420.766C332.687 416.43 341.78 412.778 351.352 413.421C370.129 414.683 370.467 425.208 391.682 425.697C393.264 434.413 393.815 440.238 390.388 448.702C389.598 447.563 388.952 446.032 388.331 444.739C389.796 438.762 389.894 434.974 389.727 428.843C386.057 428.317 382.264 427.438 378.877 429.028C376.518 427.845 374.13 426.516 371.799 425.262C368.138 421.115 356.43 416.77 350.364 416.164C344.863 416.506 331.327 419.169 328.389 423.876C322.758 425.942 317.094 428.237 311.174 429.317C305.238 430.4 299.146 426.467 295.499 432.427C294.584 435.204 294.869 440.199 294.923 443.271C292.201 439.306 293.596 437.658 293.686 432.935C292.629 436.398 292.665 441.396 291.642 443.649Z" data-index="38"></path><path fill="#EAFBFB" d="M328.389 423.876C331.327 419.169 344.863 416.506 350.364 416.164C351.654 417.617 352.337 417.398 353.677 418.521C356.989 419.527 361.302 421.399 363.887 423.703L364.138 424.595C361.085 426.176 348.937 422.895 343.095 424.076C338.822 424.427 335.453 427.098 331.524 428.787C328.263 430.187 323.732 429.114 320.741 430.007C315.724 431.503 300.009 437.186 295.499 432.427C299.146 426.467 305.238 430.4 311.174 429.317C317.094 428.237 322.758 425.942 328.389 423.876Z" data-index="39"></path><path fill="#4E9CCA" d="M328.389 423.876C331.327 419.169 344.863 416.506 350.364 416.164C351.654 417.617 352.337 417.398 353.677 418.521C346.13 418.262 336.018 421.751 328.389 423.876Z" data-index="40"></path><defs><linearGradient id="gradient_7" gradientUnits="userSpaceOnUse" x1="359.74203" y1="453.63849" x2="358.65643" y2="460.5036"><stop offset="0" stop-color="#000006"></stop><stop offset="1" stop-color="#010626"></stop></linearGradient></defs><path fill="url(#gradient_7)" d="M341.711 454.471C351.008 454.817 375.642 454.61 382.937 456.831C384.733 458.38 384.502 457.756 385.204 459.743C380.234 459.162 375.593 458.625 370.576 458.445C359.265 458.038 346.01 459.066 334.879 457.831L335.368 457.392L334.353 455.864L335.414 455.505L335.231 455.463C334.729 454.97 333.215 455.006 332.295 454.908C334.035 454.504 339.582 454.505 341.711 454.471Z" data-index="41"></path><path fill="#080F2F" d="M382.937 456.831C384.807 452.734 386.985 449.054 388.331 444.739C388.952 446.032 389.598 447.563 390.388 448.702C389.371 451.194 386.802 457.773 385.204 459.743C384.502 457.756 384.733 458.38 382.937 456.831Z" data-index="42"></path><path fill="#EAFBFB" d="M371.799 425.262C374.13 426.516 376.518 427.845 378.877 429.028C381.348 429.788 383.013 429.356 386.129 430.213C383.851 432.42 372.141 429.347 371.799 425.262Z" data-index="43"></path><defs><linearGradient id="gradient_8" gradientUnits="userSpaceOnUse" x1="316.57846" y1="549.58099" x2="346.34375" y2="556.74237"><stop offset="0" stop-color="#040011"></stop><stop offset="1" stop-color="#0A2035"></stop></linearGradient></defs><path fill="url(#gradient_8)" d="M323.879 512.768C325.021 511.339 324.956 511.44 326.578 510.56C329.902 511.687 331.374 512.432 334.484 514.008C334.444 521.731 333.177 589.462 334.294 591.822C335.18 591.773 337.36 591.616 338.118 591.849L337.988 594.619L337.905 594.869C336.449 595.066 330.792 596.177 330.716 593.362C330.026 567.807 330.698 542.096 331.141 516.514C328.623 515.285 326.34 514.093 323.879 512.768Z" data-index="44"></path><defs><linearGradient id="gradient_9" gradientUnits="userSpaceOnUse" x1="325.34039" y1="478.62186" x2="337.43365" y2="481.71576"><stop offset="0" stop-color="#000004"></stop><stop offset="1" stop-color="#061A28"></stop></linearGradient></defs><path fill="url(#gradient_9)" d="M330.756 500.145C331.458 487.146 329.997 469.328 330.825 456.029C330.87 455.304 331.445 455.289 332.295 454.908C333.215 455.006 334.729 454.97 335.231 455.463L335.414 455.505L334.353 455.864L335.368 457.392L334.879 457.831C332.919 466.27 334.95 490.646 333.75 502.462C332.275 503.141 329.922 504.317 328.432 504.747C326.619 503.334 327.226 504.196 326.434 502.143L330.756 500.145Z" data-index="45"></path><path fill="#080F2F" d="M323.879 512.768C319.177 508.378 322.058 504.773 326.434 502.143C327.226 504.196 326.619 503.334 328.432 504.747C326.584 505.917 326.112 506.007 325.299 507.905C325.431 508.987 325.487 509.861 326.578 510.56C324.956 511.44 325.021 511.339 323.879 512.768Z" data-index="46"></path><path fill="#D86992" d="M593.636 423.965C605.341 420.674 644.208 428.182 653.09 436.784C677.584 452.111 684.892 486.957 664.199 508.503C659.157 513.752 652.454 515.754 646.458 519.445C652.483 522.375 661.831 525.143 666.372 529.82C687.376 544.327 689.382 577.417 675.151 597.644C658.233 621.689 625.129 631.551 596.613 628.127C595.356 624.037 595.396 599.183 596.266 595.04C597.904 593.453 606.376 593.771 609.353 593.641C616.781 592.591 623.978 590.96 630.098 586.304C640.788 578.17 644.135 563.762 635.216 552.911C625.475 541.059 611.561 540.628 597.423 539.392C598.777 534.378 600.15 530.539 601.941 525.726C598.876 522.343 596.869 518.615 594.731 514.617C596.708 502.717 598.527 507.309 608.901 504.999C615.875 503.446 624.87 499.673 628.544 493.175C638.488 475.589 625.199 460.842 607.961 457.682C605.714 457.27 600.368 456.761 598.866 455.847C598.548 452.823 603.61 444.599 605.346 440.728C602.307 436.99 594.553 428.115 593.636 423.965Z" data-index="47" style="opacity: 1;"></path><defs><linearGradient id="gradient_10" gradientUnits="userSpaceOnUse" x1="640.42133" y1="561.02734" x2="638.8302" y2="624.95404"><stop offset="0" stop-color="#9676C1"></stop><stop offset="1" stop-color="#429CD7"></stop></linearGradient></defs><path fill="url(#gradient_10)" d="M599.695 517.058C601.949 518.433 604.613 522.902 606.248 525.303C605.131 528.04 602.341 533.477 603.314 535.89C605.868 536.6 609.239 535.792 612.498 536.551C624.226 539.281 634.48 543.123 641.362 553.653C642.644 555.616 644.191 564.321 645.946 565.493C658.667 564.234 665.912 564.158 678.716 561.987C681.057 557.877 675.694 546.427 672.941 542.911L671.925 543.006L673.426 541.495C670.772 537.918 667.913 535.57 664.52 532.744C664.326 531.669 664.163 530.62 663.994 529.542C665.259 529.521 665.103 529.561 666.372 529.82C687.376 544.327 689.382 577.417 675.151 597.644C658.233 621.689 625.129 631.551 596.613 628.127C595.356 624.037 595.396 599.183 596.266 595.04C597.904 593.453 606.376 593.771 609.353 593.641L610.819 594.859C610.881 595.243 610.943 595.628 611.004 596.013L611.403 596.205C634.003 594.119 654.28 574.278 637.881 550.782C630.357 540.003 613.439 537.565 600.994 536.428C602.17 532.869 603.776 529.047 605.172 525.529C603.642 522.654 601.493 520.55 599.695 517.058Z" data-index="48" style="opacity: 1;"></path><defs><linearGradient id="gradient_11" gradientUnits="userSpaceOnUse" x1="681.25238" y1="585.76038" x2="606.69623" y2="574.18927"><stop offset="0" stop-color="black"></stop><stop offset="1" stop-color="#05091A"></stop></linearGradient></defs><path fill="url(#gradient_11)" d="M664.52 532.744C664.326 531.669 664.163 530.62 663.994 529.542C665.259 529.521 665.103 529.561 666.372 529.82C687.376 544.327 689.382 577.417 675.151 597.644C658.233 621.689 625.129 631.551 596.613 628.127C598.779 625.308 598.908 625.314 602.454 625.56C605.984 625.234 611.04 625.246 614.725 625.134C658.361 623.81 698.056 585.172 673.426 541.495C670.772 537.918 667.913 535.57 664.52 532.744Z" data-index="49"></path><path fill="#04164D" d="M596.613 628.127C595.356 624.037 595.396 599.183 596.266 595.04C597.904 593.453 606.376 593.771 609.353 593.641L610.819 594.859C610.881 595.243 610.943 595.628 611.004 596.013L611.403 596.205C607.656 596.748 602.89 596.952 599.032 597.19C598.977 602.652 598.472 619.828 599.451 624.172C600.641 625.367 600.566 625.041 602.454 625.56C598.908 625.314 598.779 625.308 596.613 628.127Z" data-index="50"></path><path fill="#020104" d="M593.636 423.965C601.109 424.377 608.492 424.681 615.972 424.954L616.139 425.325C610.037 427.73 600.305 424.825 597.654 426.026C598.081 427.036 597.733 426.692 598.613 427.136L608.65 440.105C606.892 444.044 603.592 450.289 602.398 453.931C609.719 454.688 615.467 455.823 621.557 459.678C647.489 476.096 633.36 505.943 606.725 508.51C604.532 508.721 602.147 508.611 600.06 509.157C597.063 510.098 597.421 515.579 599.695 517.058C601.493 520.55 603.642 522.654 605.172 525.529C603.776 529.047 602.17 532.869 600.994 536.428C613.439 537.565 630.357 540.003 637.881 550.782C654.28 574.278 634.003 594.119 611.403 596.205L611.004 596.013C610.943 595.628 610.881 595.243 610.819 594.859L609.353 593.641C616.781 592.591 623.978 590.96 630.098 586.304C640.788 578.17 644.135 563.762 635.216 552.911C625.475 541.059 611.561 540.628 597.423 539.392C598.777 534.378 600.15 530.539 601.941 525.726C598.876 522.343 596.869 518.615 594.731 514.617C596.708 502.717 598.527 507.309 608.901 504.999C615.875 503.446 624.87 499.673 628.544 493.175C638.488 475.589 625.199 460.842 607.961 457.682C605.714 457.27 600.368 456.761 598.866 455.847C598.548 452.823 603.61 444.599 605.346 440.728C602.307 436.99 594.553 428.115 593.636 423.965Z" data-index="51"></path><path fill="#06040F" d="M653.09 436.784C677.584 452.111 684.892 486.957 664.199 508.503C659.157 513.752 652.454 515.754 646.458 519.445C652.483 522.375 661.831 525.143 666.372 529.82C665.103 529.561 665.259 529.521 663.994 529.542C664.163 530.62 664.326 531.669 664.52 532.744C662.344 531.115 660.74 530.122 658.451 528.735C653.306 525.07 641.394 523.417 639.488 519.582C639.772 518.65 640.165 517.533 641.191 517.312C661.462 512.952 674.37 495.126 673.019 474.431C672.527 466.901 670.09 456.398 663.498 450.388C660.051 446.421 656.883 443.418 652.737 440.23C655.51 438.767 652.713 441.387 656.034 440.17C654.95 438.818 654.337 438.576 652.904 437.56L653.09 436.784Z" data-index="52"></path><path fill="#2A0D22" d="M593.636 423.965C605.341 420.674 644.208 428.182 653.09 436.784L652.904 437.56C654.337 438.576 654.95 438.818 656.034 440.17C652.713 441.387 655.51 438.767 652.737 440.23C651.166 439.616 643.38 435.458 641.34 434.435C631.835 429.13 609.423 426.279 598.613 427.136C597.733 426.692 598.081 427.036 597.654 426.026C600.305 424.825 610.037 427.73 616.139 425.325L615.972 424.954C608.492 424.681 601.109 424.377 593.636 423.965Z" data-index="53"></path><path fill="#F5F5F4" d="M663.498 450.388L662.655 451.211C659.991 451.356 651.772 444.573 648.824 442.785C645.214 440.594 633.918 437.499 633.252 433.672C634.819 433.359 639.081 434.259 641.34 434.435C643.38 435.458 651.166 439.616 652.737 440.23C656.883 443.418 660.051 446.421 663.498 450.388Z" data-index="54"></path><path fill="#D0A6D1" d="M658.451 528.735C660.74 530.122 662.344 531.115 664.52 532.744C667.913 535.57 670.772 537.918 673.426 541.495L671.925 543.006C672.983 543.688 658.222 528.413 658.451 528.735Z" data-index="55"></path><defs><linearGradient id="gradient_12" gradientUnits="userSpaceOnUse" x1="562.19781" y1="490.95938" x2="539.49713" y2="568.55743"><stop offset="0" stop-color="#B168AD"></stop><stop offset="1" stop-color="#618DD2"></stop></linearGradient></defs><path fill="url(#gradient_12)" d="M554.146 484.38C556.157 484.901 558.533 485.447 560.491 486.031C560.41 492.921 560.304 499.71 560.484 506.6C569.258 506.558 580.61 506.172 589.182 506.606C588.982 509.611 588.838 512.488 588.398 515.472C591.439 519.39 593.466 522.133 595.895 526.474C594.367 530.885 592.94 535.301 590.954 539.526C580.573 539.372 570.37 539.402 559.994 539.467C559.87 552.278 559.456 566 559.579 578.72L559.6 593.501C563.409 593.56 589.639 593.597 591.431 594.29C591.677 594.952 591.987 595.692 592.165 596.361C592.252 600.715 592.806 624.515 591.189 627.421C582.565 630.151 562.511 626.798 553.104 626.128C544.412 625.509 535.459 625.82 526.773 624.975C520.72 624.386 519.354 623.594 515.592 619.076C514.318 584.44 517.257 549.016 516.383 514.303C516.241 508.675 515.893 501.002 516.569 495.55C517.546 494.24 518.07 494.365 519.82 493.614C532.075 480.388 531.023 485.445 543.436 495.815C546.862 492.037 550.244 486.912 554.146 484.38Z" data-index="56" style="opacity: 1;"></path><path fill="#38BA7B" d="M519.82 493.614L520.242 497.48C518.997 499.199 519.95 516.661 519.982 520.457C520.106 535.453 519.397 550.515 519.468 565.488C522.059 562.482 524.626 559.737 528.928 559.515C532.192 559.347 537.011 561.098 539.172 563.556C539.325 563.731 539.977 564.405 540.204 564.532C541.922 567.649 544.271 572.099 546.801 574.605L553.024 576.827L553.35 578.975L557.015 578.853L559.579 578.72L559.6 593.501C563.409 593.56 589.639 593.597 591.431 594.29C591.677 594.952 591.987 595.692 592.165 596.361C592.252 600.715 592.806 624.515 591.189 627.421C582.565 630.151 562.511 626.798 553.104 626.128C544.412 625.509 535.459 625.82 526.773 624.975C520.72 624.386 519.354 623.594 515.592 619.076C514.318 584.44 517.257 549.016 516.383 514.303C516.241 508.675 515.893 501.002 516.569 495.55C517.546 494.24 518.07 494.365 519.82 493.614Z" data-index="57" style="opacity: 1;"></path><path fill="#06040F" d="M519.82 493.614L520.242 497.48C518.997 499.199 519.95 516.661 519.982 520.457C520.106 535.453 519.397 550.515 519.468 565.488C522.059 562.482 524.626 559.737 528.928 559.515C532.192 559.347 537.011 561.098 539.172 563.556C539.325 563.731 539.977 564.405 540.204 564.532C541.922 567.649 544.271 572.099 546.801 574.605L553.024 576.827L553.35 578.975C548.87 578.245 544.681 577.27 542.256 573.115C534.316 559.51 528.985 555.34 518.696 571.731C518.708 578.317 517.31 616.245 519.806 619.449C520.971 620.945 525.641 621.569 527.559 621.841C536.933 623.17 546.777 622.86 556.241 623.47C566.085 624.104 575.867 625.705 585.757 625.544C587.063 625.523 588.368 625.474 589.674 625.417C590.056 615.805 589.933 606.793 589.919 597.188L592.165 596.361C592.252 600.715 592.806 624.515 591.189 627.421C582.565 630.151 562.511 626.798 553.104 626.128C544.412 625.509 535.459 625.82 526.773 624.975C520.72 624.386 519.354 623.594 515.592 619.076C514.318 584.44 517.257 549.016 516.383 514.303C516.241 508.675 515.893 501.002 516.569 495.55C517.546 494.24 518.07 494.365 519.82 493.614Z" data-index="58" style="opacity: 1;"></path><defs><linearGradient id="gradient_13" gradientUnits="userSpaceOnUse" x1="572.48505" y1="597.64185" x2="574.87933" y2="582.00848"><stop offset="0" stop-color="#0D100A"></stop><stop offset="1" stop-color="#022630"></stop></linearGradient></defs><path fill="url(#gradient_13)" d="M559.579 578.72L559.6 593.501C563.409 593.56 589.639 593.597 591.431 594.29C591.677 594.952 591.987 595.692 592.165 596.361L589.919 597.188C586.699 596.463 561.721 596.903 556.587 596.888C556.451 591.135 556.37 584.53 557.015 578.853L559.579 578.72Z" data-index="59"></path><path fill="#020104" d="M554.146 484.38C556.157 484.901 558.533 485.447 560.491 486.031C560.41 492.921 560.304 499.71 560.484 506.6C569.258 506.558 580.61 506.172 589.182 506.606C588.982 509.611 588.838 512.488 588.398 515.472C591.439 519.39 593.466 522.133 595.895 526.474C594.367 530.885 592.94 535.301 590.954 539.526C580.573 539.372 570.37 539.402 559.994 539.467C559.87 552.278 559.456 566 559.579 578.72L557.015 578.853L553.35 578.975L553.024 576.827L556.845 575.044C556.835 570.487 556.747 566.238 556.555 561.686C557.189 558.183 556.73 541.827 557.081 536.206C565.696 535.639 580.197 536.265 589.353 536.402L592.559 526.686C590.212 522.747 588.364 520.48 585.439 516.952C585.466 514.589 585.861 511.843 586.129 509.464L557.496 509.637C557.238 503.362 557.858 495.464 557.165 489.147C557.078 488.352 556.881 488.468 556.09 487.991C551.285 489.007 548.953 495.818 543.313 498.506C541.223 498.408 532.802 490.266 530.02 488.083C527.118 490.37 523.184 494.684 520.242 497.48L519.82 493.614C532.075 480.388 531.023 485.445 543.436 495.815C546.862 492.037 550.244 486.912 554.146 484.38Z" data-index="60"></path><path fill="#728BC9" d="M540.204 564.532C541.059 565.056 541.928 565.806 542.649 566.51L543.272 567.125C550.138 564.886 549.203 568.352 555.512 568.791L556.122 567.62C556.094 567.38 556.065 567.14 556.036 566.9L555.939 565.914C555.73 563.894 555.797 563.611 556.555 561.686C556.747 566.238 556.835 570.487 556.845 575.044L553.024 576.827L546.801 574.605C544.271 572.099 541.922 567.649 540.204 564.532Z" data-index="61"></path><path fill="#020104" d="M398.714 427.494C399.809 423.927 403.609 425.457 406.688 426.041C411.875 427.161 418.379 428.833 423.094 431.219C445.012 438.411 467.527 458.297 478.219 478.695C483.645 489.046 488.39 507.381 486.796 519.02C482.927 520.444 479.396 521.099 478.339 525.589C476.994 527.252 476.713 527.323 474.619 528.073L473.891 527.941C465.177 527.313 455.112 527.132 446.547 528.706C446.57 536.997 441.685 557.518 435.022 562.768C435.2 561.759 437.76 557.299 438.508 555.884C441.844 549.568 447.114 536.038 444.781 528.856C443.454 531.441 443.31 537.479 442.42 540.49C441.133 544.844 438.385 557.287 434.105 559.306C440.048 548.645 442.747 539.541 442.988 527.421C446.115 526.993 449.712 526.186 452.846 525.557C442.954 523.912 443.054 524.245 442.028 514.023C439.846 492.284 423.881 474.223 404.077 466.1C399.213 464.105 394.302 462.815 389.443 460.886C390.74 455.653 393.731 448.675 395.324 443.231C396.999 437.506 397.697 433.403 398.714 427.494Z" data-index="62"></path><path fill="#38BA7B" d="M401.525 429.529C403.985 429.982 405.461 430.321 407.989 430.361C410.322 430.743 411.387 431.014 413.647 431.72L420.146 433.232C438.639 440.166 457.748 453.091 468.743 470.16C468.957 470.492 469.24 471.587 469.361 472.011C476.225 479.978 480.054 491.524 482.213 501.659C483.27 503.828 484.258 512.718 484.543 515.353C480.434 519.026 478.686 519.462 475.11 524.164C459.719 524.02 460.411 524.046 446.441 521.45C445.979 515.278 445.69 510.324 443.725 504.379C435.627 479.884 417.946 465.078 393.062 459.591C394.265 454.879 396.393 449.733 397.818 444.982C399.216 440.32 400.06 436.158 401.025 431.401L401.547 431.273L401.525 429.529Z" data-index="63"></path><path fill="#F5F5F4" d="M482.213 501.659L481.926 502.048C478.187 500.407 472.473 483.625 469.805 479.378C467.34 475.454 459.046 468.264 460.587 463.886L461.43 463.653C464.419 465.818 466.306 469.423 469.361 472.011C476.225 479.978 480.054 491.524 482.213 501.659Z" data-index="64"></path><path fill="#BEFBDF" d="M401.525 429.529C403.985 429.982 405.461 430.321 407.989 430.361L407.173 433.477C403.695 433.735 403.804 433.623 401.547 431.273L401.525 429.529Z" data-index="65"></path><path fill="#EAFBFB" d="M407.989 430.361C410.322 430.743 411.387 431.014 413.647 431.72C413.207 433.584 413.708 432.916 412.258 433.907C410.079 434.011 409.366 433.837 407.173 433.477L407.989 430.361Z" data-index="66"></path><path fill="#103622" d="M398.714 427.494C399.809 423.927 403.609 425.457 406.688 426.041C411.875 427.161 418.379 428.833 423.094 431.219C418.177 431.375 415.802 428.075 410.218 428.77C411.691 431.105 418.161 430.778 420.146 433.232L413.647 431.72C411.387 431.014 410.322 430.743 407.989 430.361C405.461 430.321 403.985 429.982 401.525 429.529L401.547 431.273L401.025 431.401L400.802 428.993C399.825 427.597 400.458 428.133 398.714 427.494Z" data-index="67"></path><path fill="#0A231F" d="M398.714 427.494C399.809 423.927 403.609 425.457 406.688 426.041C406.158 428.235 406.583 427.948 405.195 429.208C403.93 429.342 402.801 429.444 401.525 429.529L401.547 431.273L401.025 431.401L400.802 428.993C399.825 427.597 400.458 428.133 398.714 427.494Z" data-index="68"></path><path fill="#D86992" d="M478.339 525.589C479.679 526.387 481.11 527.425 482.556 527.719C483.794 528.051 486.479 528.653 486.846 529.893C489.115 537.56 483.924 553.893 481.559 560.76C470.451 593.012 441.48 617.986 407.365 623.579C406.189 624.178 404.119 624.583 402.735 624.245C401.169 622.834 401.662 623.198 401.184 620.604C400.715 617.925 397.279 608.395 396.309 605.711C395.092 601.225 394.657 597.203 394.051 592.619L394.08 592.051L396.057 591.653C412.825 585.932 417.964 582.143 431.04 570.098C433.712 571.363 439.738 573.814 442.23 571.526C442.095 567.276 436.084 565.466 435.022 562.768C441.685 557.518 446.57 536.997 446.547 528.706C455.112 527.132 465.177 527.313 473.891 527.941L474.619 528.073C476.713 527.323 476.994 527.252 478.339 525.589Z" data-index="69"></path><defs><linearGradient id="gradient_14" gradientUnits="userSpaceOnUse" x1="466.12323" y1="588.51355" x2="432.46069" y2="569.85345"><stop offset="0" stop-color="black"></stop><stop offset="1" stop-color="#2D0723"></stop></linearGradient></defs><path fill="url(#gradient_14)" d="M482.556 527.719C483.794 528.051 486.479 528.653 486.846 529.893C489.115 537.56 483.924 553.893 481.559 560.76C470.451 593.012 441.48 617.986 407.365 623.579C406.189 624.178 404.119 624.583 402.735 624.245C401.169 622.834 401.662 623.198 401.184 620.604C403.796 620.526 405.522 620.437 408.149 620.114L408.965 620.193C421.107 617.288 435.528 611.986 445.643 604.389C461.904 592.177 475.468 571.532 481.007 551.98C482.405 547.046 483.571 538.333 484.311 533.06L483.031 531.218L482.556 527.719Z" data-index="70"></path><path fill="#2A0D22" d="M408.149 620.114L408.965 620.193L408.478 621.133L405.456 621.083C404.582 621.946 404.544 622.206 403.966 623.313L404.395 623.203C405.933 622.825 405.592 622.725 407.015 623.098L407.365 623.579C406.189 624.178 404.119 624.583 402.735 624.245C401.169 622.834 401.662 623.198 401.184 620.604C403.796 620.526 405.522 620.437 408.149 620.114Z" data-index="71"></path><path fill="#96417E" d="M394.08 592.051L396.057 591.653C397.095 592.428 398.31 593.045 398.366 594.498C398.666 602.275 399.367 613.275 404.661 619.591C405.832 620.268 406.777 620.112 408.149 620.114C405.522 620.437 403.796 620.526 401.184 620.604C400.715 617.925 397.279 608.395 396.309 605.711C395.092 601.225 394.657 597.203 394.051 592.619L394.08 592.051Z" data-index="72"></path><path fill="#D86992" d="M394.051 592.619C398.46 595.398 399.814 601.978 396.309 605.711C395.092 601.225 394.657 597.203 394.051 592.619Z" data-index="73"></path><path fill="#F3E2E9" d="M478.339 525.589C479.679 526.387 481.11 527.425 482.556 527.719L483.031 531.218L484.311 533.06C481.057 533.933 475.823 534.4 473.194 531.946C472.586 530.024 472.928 530.37 473.891 527.941L474.619 528.073C476.713 527.323 476.994 527.252 478.339 525.589Z" data-index="74"></path><path fill="#4B4140" d="M478.339 525.589C479.679 526.387 481.11 527.425 482.556 527.719L483.031 531.218C480.247 530.607 476.992 529.668 474.619 528.073C476.713 527.323 476.994 527.252 478.339 525.589Z" data-index="75"></path><defs><linearGradient id="gradient_15" gradientUnits="userSpaceOnUse" x1="576.50684" y1="473.60172" x2="516.51758" y2="430.77701"><stop offset="0" stop-color="black"></stop><stop offset="1" stop-color="#110412"></stop></linearGradient></defs><path fill="url(#gradient_15)" d="M540.754 423.716C554.725 423.065 572.339 423.51 586.59 423.468C590.193 427.915 595.405 435.746 598.759 440.642C597.035 444.955 592.948 452.339 590.668 456.352C580.452 456.113 570.658 456.054 560.448 456.094C560.414 460.215 560.994 477.273 560.086 479.988C558.892 480.751 557.981 480.442 556.529 480.273C555.973 480.174 554.364 479.858 553.912 480.006C549.488 481.451 546.949 487.815 543.515 491.226C539.711 488.738 532.715 482.69 528.729 479.591C525.661 482.527 520.867 490.697 516.359 487.973C515.377 481.769 516.321 471.021 516.036 464.349C515.595 454.022 515.89 443.056 516.144 432.703C516.262 431.13 517.491 427.829 518.677 426.789C522.934 423.056 535.489 423.941 540.754 423.716Z" data-index="76" style="opacity: 1;"></path><path fill="#D86992" d="M533.632 427.251C541.73 425.962 553.447 426.192 561.825 426.176C568.809 426.163 578.105 425.907 584.948 426.386C588.284 431.149 592.036 436.623 595.599 441.19C593.429 445.123 590.982 449.384 588.957 453.372C582.406 452.544 565.053 452.987 557.737 453.025C557.388 461.107 557.749 469.012 557.506 477.001C555.392 476.943 553.201 476.828 551.097 476.952C547.76 480.32 545.658 483.794 542.972 487.677C538.778 484.017 533.706 479.635 529.254 476.269C525.249 478.7 522.356 482.122 519.141 485.541C519.2 474.523 518.842 459.576 519.456 448.881C519.576 443.607 518.616 435.864 520.324 431.075C521.008 429.158 522.647 428.661 524.431 427.956C527.415 428.116 530.643 427.61 533.632 427.251Z" data-index="77" style="opacity: 1;"></path><path fill="#F5F5F4" d="M519.456 448.881C519.576 443.607 518.616 435.864 520.324 431.075C521.008 429.158 522.647 428.661 524.431 427.956C524.935 429.269 525.23 429.731 525.265 431.133C524.968 436.014 525.969 445.079 522.76 448.917C522.1 449.706 520.362 449.19 519.456 448.881Z" data-index="78" style="opacity: 1;"></path><path fill="#F3E2E9" d="M524.431 427.956C527.415 428.116 530.643 427.61 533.632 427.251L536.013 431.058C532.445 431.069 528.826 431.048 525.265 431.133C525.23 429.731 524.935 429.269 524.431 427.956Z" data-index="79"></path><path fill="#BD68B1" d="M434.105 559.306C438.385 557.287 441.133 544.844 442.42 540.49C443.31 537.479 443.454 531.441 444.781 528.856C447.114 536.038 441.844 549.568 438.508 555.884C437.76 557.299 435.2 561.759 435.022 562.768C436.084 565.466 442.095 567.276 442.23 571.526C439.738 573.814 433.712 571.363 431.04 570.098C417.964 582.143 412.825 585.932 396.057 591.653L394.08 592.051L392.523 591.327C391.652 591.821 391.391 591.871 391.104 592.895C387.79 604.739 404.018 622.784 397.655 626.516C391.177 630.314 361.946 630.344 353.688 629.253C349.78 628.736 345.989 627.25 342.131 626.457L342.419 622.913C342.7 621.558 346.882 614.729 348.336 609.203C346.76 602.526 344.859 600.345 341.296 594.582C340.212 593.799 340.804 594.081 339.522 593.731L337.988 594.619L338.118 591.849C364.741 592.935 397.719 593.651 419.809 576.031C422.798 573.648 425.924 569.385 428.724 566.453C430.949 567.421 432.426 568.339 434.83 568.335L435.273 567.859C434.505 566.39 432.278 565.358 430.759 564.449C431.918 562.438 432.61 561.136 434.105 559.306Z" data-index="80"></path><path fill="#06040F" d="M434.105 559.306C438.385 557.287 441.133 544.844 442.42 540.49C443.31 537.479 443.454 531.441 444.781 528.856C447.114 536.038 441.844 549.568 438.508 555.884C437.76 557.299 435.2 561.759 435.022 562.768C436.084 565.466 442.095 567.276 442.23 571.526C439.738 573.814 433.712 571.363 431.04 570.098C417.964 582.143 412.825 585.932 396.057 591.653L394.08 592.051L392.523 591.327C391.652 591.821 391.391 591.871 391.104 592.895C387.79 604.739 404.018 622.784 397.655 626.516C391.177 630.314 361.946 630.344 353.688 629.253C349.78 628.736 345.989 627.25 342.131 626.457L342.419 622.913C345.624 624.427 348.733 624.966 352.223 625.49C363.628 627.266 384.795 627.02 396.003 624.092C394.765 614.122 390.882 613.808 388.316 605.119C387.627 602.787 387.771 596.221 387.784 593.399C379.823 594.539 371.831 594.867 363.801 595.121C356.805 595.07 348.123 595.213 341.296 594.582C340.212 593.799 340.804 594.081 339.522 593.731L337.988 594.619L338.118 591.849C364.741 592.935 397.719 593.651 419.809 576.031C422.798 573.648 425.924 569.385 428.724 566.453C430.949 567.421 432.426 568.339 434.83 568.335L435.273 567.859C434.505 566.39 432.278 565.358 430.759 564.449C431.918 562.438 432.61 561.136 434.105 559.306Z" data-index="81"></path><path fill="#9F74B6" d="M341.296 594.582C348.123 595.213 356.805 595.07 363.801 595.121C356.782 596.952 349.725 594.97 343.396 595.957C344.72 598.037 343.611 596.635 345.041 597.48C349.746 600.264 351.854 608.457 351.323 613.572C351.053 616.167 349.774 618.284 348.72 620.373L347.772 622.237C348.525 623.316 348.041 622.841 349.875 623.193L349.131 623.401C348.227 623.663 348.563 623.508 347.957 623.856C350.154 624.131 350.49 624.132 352.223 625.49C348.733 624.966 345.624 624.427 342.419 622.913C342.7 621.558 346.882 614.729 348.336 609.203C346.76 602.526 344.859 600.345 341.296 594.582Z" data-index="82"></path><path fill="#FAA201" d="M968.362 529.91C971.057 528.96 974.009 529.047 976.643 530.155C980.284 531.685 982.885 534.978 983.531 538.874C984.177 542.77 982.779 546.726 979.827 549.35C976.356 552.436 971.37 553.131 967.187 551.112C963.004 549.093 960.447 544.756 960.704 540.119C960.961 535.482 963.982 531.454 968.362 529.91Z" data-index="83"></path><path fill="#210E04" d="M968.362 529.91C971.057 528.96 974.009 529.047 976.643 530.155L975.76 531.688L976.091 532.318C973.213 534.943 968.449 535.952 964.603 536.871C960.971 547.414 971.175 552.628 978.408 547.552L979.827 549.35C976.356 552.436 971.37 553.131 967.187 551.112C963.004 549.093 960.447 544.756 960.704 540.119C960.961 535.482 963.982 531.454 968.362 529.91Z" data-index="84"></path><path fill="#F3A541" d="M964.603 536.871C967.047 532.154 970.709 531.123 975.76 531.688L976.091 532.318C973.213 534.943 968.449 535.952 964.603 536.871Z" data-index="85"></path><path fill="#020104" d="M976.643 530.155C980.284 531.685 982.885 534.978 983.531 538.874C984.177 542.77 982.779 546.726 979.827 549.35L978.408 547.552C983.059 542.056 981.427 536.583 976.091 532.318L975.76 531.688L976.643 530.155Z" data-index="86"></path><path fill="#020104" d="M493.395 395.792C497.324 394.549 501.618 395.533 504.614 398.361C507.611 401.189 508.84 405.419 507.827 409.413C506.814 413.407 503.717 416.539 499.734 417.597C493.772 419.18 487.636 415.714 485.913 409.791C484.191 403.867 487.513 397.651 493.395 395.792Z" data-index="87"></path><path fill="#F3A541" d="M494.529 398.045C508.444 397.38 508.352 411.344 499.074 415.089L493.294 414.711C485.802 409.6 485.97 401.876 494.529 398.045Z" data-index="88"></path><path fill="#1F93C2" d="M288.087 411.678C277.804 404.255 288.419 385.875 301.102 393.651C304.76 395.653 306.076 398.564 307.259 402.475C304.866 412.411 297.508 418.806 288.087 411.678Z" data-index="89"></path><path fill="#4E9CCA" d="M293.009 395.086C294.509 394.476 296.708 394.319 298.383 394.111C299.916 395.287 300.7 395.825 301.98 397.243L304.1 401.239C302.491 404.062 302.201 403.582 298.93 403.89C296.074 404.924 296.931 406.769 293.857 408.017L293.225 408.418C291.072 407.63 291.774 405.682 289.996 404.253C289.091 403.526 289.199 403.513 288.514 402.543C289.346 398.803 290.407 398.041 293.009 395.086Z" data-index="90"></path><defs><linearGradient id="gradient_16" gradientUnits="userSpaceOnUse" x1="290.90402" y1="405.7413" x2="294.25861" y2="400.1553"><stop offset="0" stop-color="#299DC6"></stop><stop offset="1" stop-color="#42B8DB"></stop></linearGradient></defs><path fill="url(#gradient_16)" d="M288.514 402.543C290.067 400.153 291.625 397.887 294.59 399.866C296.314 403.17 295.513 404.869 293.857 408.017L293.225 408.418C291.072 407.63 291.774 405.682 289.996 404.253C289.091 403.526 289.199 403.513 288.514 402.543Z" data-index="91"></path><path fill="#17A8DD" d="M298.93 403.89L297.983 402.716C297.511 400.297 297.135 399.382 298.52 397.317C300.192 396.507 299.711 396.78 301.98 397.243L304.1 401.239C302.491 404.062 302.201 403.582 298.93 403.89Z" data-index="92"></path><path fill="#080F2F" d="M298.383 394.111L294.289 392.697C296.586 393.053 298.795 393.366 301.102 393.651C304.76 395.653 306.076 398.564 307.259 402.475C304.866 412.411 297.508 418.806 288.087 411.678L289.568 410.875C298.249 411.975 303.605 411.31 304.1 401.239L301.98 397.243C300.7 395.825 299.916 395.287 298.383 394.111Z" data-index="93"></path><path fill="#052650" d="M288.087 411.678C277.804 404.255 288.419 385.875 301.102 393.651C298.795 393.366 296.586 393.053 294.289 392.697L298.383 394.111C296.708 394.319 294.509 394.476 293.009 395.086C290.66 396.426 290.345 396.681 288.499 398.659C287.505 402.249 286.488 407.991 289.568 410.875L288.087 411.678Z" data-index="94"></path><path fill="#2A0D22" d="M958.077 393.372C963.279 393.595 970.446 396.625 969.202 403.397C968.247 408.6 957.921 413.824 953.224 416.677C950.422 418.038 947.795 419.986 945.28 417.438C943.654 411.608 953.543 396.97 958.077 393.372Z" data-index="95"></path><path fill="#BD68B1" d="M946.782 416.237C948.291 412.903 956.9 393.502 962.974 396.631C968.248 399.348 967.289 405.742 960.918 408.717L960.403 408.952L959.052 409.264C956.084 411.287 949.96 414.709 946.782 416.237Z" data-index="96"></path><path fill="#D86992" d="M957.642 401.76C960.314 402.311 961.957 402.074 963.008 404.623C962.53 406.773 961.898 407.206 960.403 408.952L959.052 409.264C955.47 408.998 954.162 411.629 951.868 411.49C955.926 406.377 954.69 408.11 957.642 401.76Z" data-index="97"></path><path fill="#D86992" d="M375.575 657.472C373.328 642.699 383.048 630.612 389.608 647.542C394.067 663.764 381.589 679.714 375.575 657.472Z" data-index="98"></path><path fill="#2A0D22" d="M375.575 657.472C373.328 642.699 383.048 630.612 389.608 647.542L386.677 649.474C385.781 647.007 385.146 644.289 382.873 642.957C377.296 643.74 378.651 656.57 379.538 660.709C377.954 658.656 377.889 658.365 375.575 657.472Z" data-index="99"></path><path fill="#020104" d="M386.677 649.474L389.608 647.542C394.067 663.764 381.589 679.714 375.575 657.472C377.889 658.365 377.954 658.656 379.538 660.709C380.778 663.177 381.277 664.803 383.646 665.831C387.886 664.019 387.84 653.464 386.677 649.474Z" data-index="100"></path><defs><linearGradient id="gradient_17" gradientUnits="userSpaceOnUse" x1="967.10382" y1="628.77277" x2="959.33344" y2="645.97296"><stop offset="0" stop-color="#041F13"></stop><stop offset="1" stop-color="#123E36"></stop></linearGradient></defs><path fill="url(#gradient_17)" d="M959.305 627.936C964.693 625.683 970.884 628.256 973.087 633.665C975.29 639.073 972.659 645.24 967.23 647.393C961.873 649.517 955.804 646.928 953.63 641.59C951.456 636.253 953.988 630.16 959.305 627.936Z" data-index="101"></path><path fill="#38BA7B" d="M962.679 630.004C972.684 630.297 975.004 639.727 965.615 644.708C954.286 644.851 951.85 634.781 962.679 630.004Z" data-index="102"></path><defs><linearGradient id="gradient_18" gradientUnits="userSpaceOnUse" x1="697.58398" y1="631.66461" x2="708.97772" y2="645.51831"><stop offset="0" stop-color="#002B65"></stop><stop offset="1" stop-color="#1D548C"></stop></linearGradient></defs><path fill="url(#gradient_18)" d="M700.508 629.293C705.828 627.569 711.533 630.514 713.209 635.85C714.884 641.186 711.887 646.864 706.536 648.491C701.254 650.097 695.664 647.147 694.01 641.879C692.355 636.611 695.255 630.994 700.508 629.293Z" data-index="103"></path><path fill="#4E9CCA" d="M702.093 632.008C711.407 631.358 714.032 640.226 704.205 645.749C697.341 647.025 692.397 636.799 702.093 632.008Z" data-index="104"></path><path fill="#020104" d="M716.139 391.502C718.326 391.377 719.687 391.333 721.174 393.221C724.278 397.165 733.033 412.96 728.138 416.481C726.327 416.721 725.735 416.263 724.07 415.514C715.775 408.83 698.739 400.308 716.139 391.502Z" data-index="105"></path><path fill="#F3A541" d="M715.969 394.481L718.261 394.607C722.139 396.431 726.795 408.834 726.346 413.021L725.782 413.212L723.388 411.481C717.713 407.077 705.694 400.516 715.969 394.481Z" data-index="106"></path><path fill="#FAC027" d="M717.42 396.237C718.004 396.313 718.526 396.492 719.102 396.652L719.288 397.577C718.458 399.587 717.102 400.657 715.549 402.218C713.924 401.759 714.576 402.178 713.47 401.004L713.529 399.783C714.865 397.761 715.328 397.622 717.42 396.237Z" data-index="107"></path><path fill="#103622" d="M55.4562 427.838C60.5499 427.086 65.2965 430.584 66.0868 435.671C66.8771 440.759 63.4153 445.532 58.3335 446.361C53.1972 447.198 48.362 443.691 47.5633 438.549C46.7645 433.406 50.3079 428.598 55.4562 427.838Z" data-index="108"></path><path fill="#3BA672" d="M52.7257 432.317C60.5376 427.074 66.9279 437.436 60.3658 442.826C57.6389 445.066 52.8877 442.585 50.4709 440.582C50.4262 436.625 50.3089 435.417 52.7257 432.317Z" data-index="109"></path><path fill="#38BA7B" d="M52.7257 432.317C54.3193 435.572 53.3658 438.462 50.4709 440.582C50.4262 436.625 50.3089 435.417 52.7257 432.317Z" data-index="110"></path><path fill="#052650" d="M278.047 625.145C287.798 622.031 294.809 637.692 281.348 642.959C266.867 643.341 267.227 626.518 278.047 625.145Z" data-index="111"></path><path fill="#4E9CCA" d="M279.36 627.515C287.265 628.829 289.277 637.135 279.675 640.273C273.948 641.222 269.669 630.482 279.36 627.515Z" data-index="112"></path><path fill="#2A0D22" d="M495.447 627.39C500.388 628.064 507.81 627.39 511.67 628.44L511.692 644.655C507.973 644.36 500.666 643.719 497.141 644.555L496.126 644.126C494.798 642.089 495.381 630.533 495.447 627.39Z" data-index="113"></path><path fill="#D86992" d="M498.51 630.542C501.954 630.516 505.538 630.617 508.993 630.667C508.979 633.957 509.053 636.857 509.209 640.145L508.612 641.115C505.496 641.471 501.122 641.128 498.737 641.542C498.421 638.452 498.527 633.774 498.51 630.542Z" data-index="114"></path><path fill="#F3A541" d="M39.0242 552.618C38.9822 549.318 38.3985 540.712 39.6738 537.734C39.9443 537.102 40.3781 537.253 41.1837 537.16C44.8388 537.756 49.2683 537.795 53.0299 537.931C53.0012 541.489 52.8195 545.974 53.363 549.405L53.081 551.514C51.7478 552.627 42.4475 552.204 39.0242 552.618Z" data-index="115"></path><path fill="#020104" d="M39.0242 552.618C38.9822 549.318 38.3985 540.712 39.6738 537.734C39.9443 537.102 40.3781 537.253 41.1837 537.16L42.0191 541.288C41.8863 543.918 41.6619 546.916 41.6835 549.519L49.9281 549.445L53.363 549.405L53.081 551.514C51.7478 552.627 42.4475 552.204 39.0242 552.618Z" data-index="116"></path><path fill="#431813" d="M41.1837 537.16C44.8388 537.756 49.2683 537.795 53.0299 537.931C53.0012 541.489 52.8195 545.974 53.363 549.405L49.9281 549.445L50.0002 547.557C50.0924 544.847 50.5831 542.627 48.7472 540.66C46.5123 539.718 44.2478 540.522 42.0191 541.288L41.1837 537.16Z" data-index="117"></path><defs><linearGradient id="gradient_19" gradientUnits="userSpaceOnUse" x1="960.57043" y1="449.33734" x2="960.98798" y2="439.25113"><stop offset="0" stop-color="black"></stop><stop offset="1" stop-color="#29061C"></stop></linearGradient></defs><path fill="url(#gradient_19)" d="M966.17 438.63C972.364 438.45 973.708 446.948 968.901 449.624C965.668 451.423 961.85 450.125 958.502 449.244C955.555 448.36 950.254 447.7 951.502 443.694C954.64 440.646 961.776 439.442 966.17 438.63Z" data-index="118"></path><path fill="#D86992" d="M963.106 442.076C964.586 441.911 965.338 441.976 966.795 442.05C968.604 443.197 967.945 442.449 968.868 444.359C968.222 448.755 965.376 448.131 961.882 447.902C959.704 447.562 956.351 447.482 955.665 445.186C957.06 443.008 960.56 442.639 963.106 442.076Z" data-index="119"></path><path fill="#020104" d="M48.7181 468.545C59.1384 468.432 63.7924 477.207 54.2476 482.92C43.0425 485.178 40.0627 473.574 48.7181 468.545Z" data-index="120"></path><path fill="#38BA7B" d="M48.8148 472.089C54.7104 471.013 59.4056 473.772 54.9298 479.842C51.8214 480.806 49.7203 481.677 47.5541 478.638C46.9128 475.993 47.5197 474.451 48.8148 472.089Z" data-index="121"></path><path fill="#020104" d="M466.07 430.401C475.703 431.504 477.59 439.635 469.626 444.819C460.116 446.314 457.092 435.186 466.07 430.401Z" data-index="122"></path><path fill="#3BA672" d="M465.808 433.463C472.316 433.788 473.844 437.353 468.77 441.775L466.468 442.292C462.781 440.509 463.884 436.207 465.808 433.463Z" data-index="123"></path><path fill="#06040F" d="M46.6261 489.67C53.2576 487.91 57.696 498.81 47.8956 503.159C38.3432 503.001 36.8233 490.16 46.6261 489.67Z" data-index="124"></path><defs><linearGradient id="gradient_20" gradientUnits="userSpaceOnUse" x1="78.230537" y1="501.31686" x2="70.795395" y2="491.95688"><stop offset="0" stop-color="black"></stop><stop offset="1" stop-color="#341003"></stop></linearGradient></defs><path fill="url(#gradient_20)" d="M73.6027 489.45C82.9362 491.327 84.8646 500.712 76.1876 503.558C74.0957 503.608 72.1108 502.784 70.0751 502.141C68.0354 495.792 66.8275 492.691 73.6027 489.45Z" data-index="125"></path><path fill="#F3A541" d="M73.0625 492.961C76.5996 492.888 78.5139 494.106 78.6538 497.762C77.8731 499.375 77.9361 499.262 76.3567 500.132C73.8609 500.847 73.765 501.043 71.5878 499.894C69.5357 496.979 70.8782 495.234 73.0625 492.961Z" data-index="126"></path><path fill="#080F2F" d="M395.704 388.884C399.233 388.114 402.739 390.276 403.635 393.776C404.531 397.275 402.496 400.856 399.031 401.877C396.676 402.571 394.131 401.923 392.394 400.189C390.657 398.455 390.005 395.91 390.695 393.555C391.384 391.199 393.305 389.408 395.704 388.884Z" data-index="127"></path><path fill="#4E9CCA" d="M396.463 391.777C397.818 391.49 399.22 391.978 400.103 393.044C400.987 394.111 401.206 395.579 400.672 396.857C400.139 398.135 398.94 399.011 397.561 399.132C395.598 399.305 393.841 397.92 393.55 395.971C393.259 394.023 394.536 392.185 396.463 391.777Z" data-index="128"></path><defs><linearGradient id="gradient_21" gradientUnits="userSpaceOnUse" x1="638.26196" y1="659.06763" x2="645.35803" y2="653.88361"><stop offset="0" stop-color="#1A1800"></stop><stop offset="1" stop-color="#33281B"></stop></linearGradient></defs><path fill="url(#gradient_21)" d="M636.778 652.79C638.068 650.522 638.557 650.117 640.455 648.287C644.095 653.236 645.15 654.358 650.229 657.768C648.573 659.819 644.642 663.322 642.538 665.094L640.7 663.269C638.936 661.901 637.037 660.047 635.373 658.509C636.957 656.574 638.071 655.615 639.897 653.949L636.778 652.79Z" data-index="129"></path><path fill="#FAC027" d="M639.897 653.949L646.528 658.156C644.921 659.519 642.049 661.81 640.7 663.269C638.936 661.901 637.037 660.047 635.373 658.509C636.957 656.574 638.071 655.615 639.897 653.949Z" data-index="130"></path><path fill="#492B50" d="M682.071 465.171C682.875 459.605 687.099 455.851 692.061 460.063C697.882 469.329 686.743 475.103 682.071 465.171Z" data-index="131"></path><path fill="#2A0D22" d="M682.071 465.171C682.875 459.605 687.099 455.851 692.061 460.063C686.121 461.674 685.912 464.12 682.071 465.171Z" data-index="132"></path><path fill="#080F2F" d="M587.94 640.335C590.221 639.174 593.011 639.944 594.375 642.109C595.739 644.275 595.228 647.123 593.197 648.68C591.706 649.822 589.698 650.023 588.01 649.198C586.323 648.374 585.247 646.666 585.232 644.788C585.218 642.91 586.266 641.186 587.94 640.335Z" data-index="133"></path><path fill="#06040F" d="M593.197 648.68C591.706 649.822 589.698 650.023 588.01 649.198C586.323 648.374 585.247 646.666 585.232 644.788C585.218 642.91 586.266 641.186 587.94 640.335C589.715 644.535 587.084 646.394 592.181 647.563L593.197 648.68Z" data-index="134"></path><path fill="#080F2F" d="M335.222 646.41C337.527 645.151 340.415 645.944 341.754 648.204C343.093 650.464 342.401 653.378 340.19 654.795C338.688 655.757 336.782 655.824 335.218 654.968C333.653 654.112 332.681 652.471 332.682 650.687C332.683 648.904 333.657 647.264 335.222 646.41Z" data-index="135"></path><defs><linearGradient id="gradient_22" gradientUnits="userSpaceOnUse" x1="202.7921" y1="633.96686" x2="203.60217" y2="641.10193"><stop offset="0" stop-color="#030503"></stop><stop offset="1" stop-color="#0F2111"></stop></linearGradient></defs><path fill="url(#gradient_22)" d="M201.747 633.863C204.01 632.878 206.648 633.862 207.713 636.089C208.778 638.316 207.888 640.987 205.701 642.131C204.215 642.908 202.423 642.811 201.029 641.879C199.634 640.947 198.86 639.329 199.01 637.658C199.159 635.988 200.209 634.533 201.747 633.863Z" data-index="136"></path><path fill="#04164D" d="M605.306 652.624C604.691 650.25 606.128 647.83 608.507 647.234C610.886 646.638 613.295 648.096 613.871 650.479C614.44 652.835 613.003 655.21 610.652 655.799C608.3 656.388 605.914 654.97 605.306 652.624Z" data-index="137"></path><path fill="#052650" d="M613.871 650.479C614.44 652.835 613.003 655.21 610.652 655.799C608.3 656.388 605.914 654.97 605.306 652.624L608.226 651.89C612.003 653.145 611.328 653.222 613.871 650.479Z" data-index="138"></path><path fill="#020104" d="M705.168 503.3C707.358 503.696 708.823 505.778 708.457 507.974C708.091 510.169 706.03 511.663 703.829 511.327C702.379 511.106 701.16 510.12 700.639 508.749C700.118 507.377 700.376 505.831 701.314 504.703C702.252 503.574 703.725 503.038 705.168 503.3Z" data-index="139"></path><path fill="#020104" d="M705.004 437.43C710.603 437.174 712.292 440.696 708.523 444.815C702.942 446.362 702.732 441.2 705.004 437.43Z" data-index="140"></path><path fill="#020104" d="M631.126 659.009C632.779 657.524 633.398 658.092 635.373 658.509C637.037 660.047 638.936 661.901 640.7 663.269L642.538 665.094C641.554 666.7 641.406 666.947 640.16 668.332C637.035 664.912 634.499 662.2 631.126 659.009Z" data-index="141"></path><path fill="#020104" d="M268.868 429.244C274.446 429.338 274.566 433.465 271.96 437.23C266.081 437.334 265.994 433.338 268.868 429.244Z" data-index="142"></path><path fill="#052650" d="M419.422 408.422C421.299 407.899 423.255 408.943 423.864 410.793C424.474 412.643 423.522 414.646 421.702 415.341C420.448 415.82 419.031 415.57 418.015 414.691C417 413.812 416.55 412.446 416.844 411.136C417.138 409.825 418.129 408.783 419.422 408.422Z" data-index="143"></path><path fill="#020104" d="M544.221 635.306C546.004 634.493 548.11 635.269 548.938 637.045C549.765 638.821 549.006 640.933 547.237 641.775C545.447 642.628 543.305 641.858 542.468 640.061C541.63 638.264 542.418 636.129 544.221 635.306Z" data-index="144"></path><path fill="#020104" d="M502.878 435.418C504.032 434.919 505.366 435.09 506.357 435.864C507.347 436.638 507.835 437.892 507.629 439.132C507.423 440.372 506.556 441.4 505.368 441.812C503.624 442.417 501.713 441.535 501.043 439.814C500.373 438.094 501.184 436.152 502.878 435.418Z" data-index="145"></path><path fill="#431813" d="M697.33 560.379C698.471 559.855 699.807 560.002 700.807 560.76C701.807 561.519 702.309 562.766 702.114 564.005C701.918 565.245 701.056 566.277 699.871 566.691C698.154 567.29 696.269 566.434 695.59 564.747C694.91 563.06 695.676 561.137 697.33 560.379Z" data-index="146"></path><path fill="#020104" d="M329.463 661.112C331.012 660.804 332.543 661.717 333.008 663.227C333.473 664.737 332.72 666.353 331.265 666.97C330.183 667.428 328.933 667.231 328.045 666.46C327.157 665.689 326.785 664.48 327.086 663.344C327.387 662.207 328.31 661.341 329.463 661.112Z" data-index="147"></path><path fill="#362D0B" d="M636.778 652.79L639.897 653.949C638.071 655.615 636.957 656.574 635.373 658.509C633.398 658.092 632.779 657.524 631.126 659.009C631.124 659.002 630.642 657.632 630.924 657.523C632.816 656.792 635.928 653.982 636.778 652.79Z" data-index="148"></path></svg>